#N canvas 11 516 1243 449 10;
#X declare -lib mrpeach;
#X obj 37 37 import mrpeach;
#X obj 42 99 udpreceive 12000;
#X obj 42 128 routeOSC /leapL /leapR /kinect;
#X obj 42 159 unpack f f f f f f f;
#X obj 357 163 unpack f f f;
#X obj 203 160 unpack f f f f f f f;
#X obj 485 153 routeOSC /leapL /leapR /kinect;
#X obj 487 206 unpack f f f f f f f;
#X obj 802 210 unpack f f f;
#X obj 648 207 unpack f f f f f f f;
#X obj 893 156 routeOSC /leapL /leapR /kinect;
#X obj 895 209 unpack f f f f f f f;
#X obj 1210 213 unpack f f f;
#X obj 1056 210 unpack f f f f f f f;
#X obj 478 103 udpreceive 12001;
#X obj 886 106 udpreceive 12002;
#N canvas 30 32 622 431 pos 0;
#X obj 158 37 inlet;
#X obj 157 250 hsl 128 15 -100 100 0 0 empty empty empty -2 -8 0 10
-262144 -1 -1 0 1;
#X obj 136 120 vsl 15 128 -100 100 0 0 empty empty empty 0 -9 0 10
-262144 -1 -1 0 1;
#X obj 114 258 knob 32 32 -100 100 0 0 empty empty empty 0 -8 0 8 -262144
-1 -1 0 1;
#X obj 101 374 outlet;
#X obj 99 317 + 600;
#X obj 98 346 / 1200;
#X obj 178 372 outlet;
#X obj 176 315 + 600;
#X obj 175 344 / 1200;
#X obj 263 373 outlet;
#X obj 260 345 / 1200;
#X obj 261 315 + 600;
#X obj 209 39 inlet;
#X obj 265 37 inlet;
#X connect 0 0 1 0;
#X connect 1 0 5 0;
#X connect 2 0 8 0;
#X connect 3 0 12 0;
#X connect 5 0 6 0;
#X connect 6 0 4 0;
#X connect 8 0 9 0;
#X connect 9 0 7 0;
#X connect 11 0 10 0;
#X connect 12 0 11 0;
#X connect 13 0 2 0;
#X connect 14 0 3 0;
#X coords 0 -1 1 1 200 200 2 100 100;
#X restore 41 220 pd pos;
#X connect 1 0 2 0;
#X connect 2 0 3 0;
#X connect 2 1 5 0;
#X connect 2 3 4 0;
#X connect 3 0 16 0;
#X connect 3 1 16 1;
#X connect 3 2 16 2;
#X connect 6 0 7 0;
#X connect 6 1 9 0;
#X connect 6 3 8 0;
#X connect 10 0 11 0;
#X connect 10 1 13 0;
#X connect 10 3 12 0;
#X connect 14 0 6 0;
#X connect 15 0 10 0;
